<?xml version="1.0" standalone="no"?>
<!DOCTYPE svg PUBLIC "-//W3C//DTD SVG 20010904//EN"
 "http://www.w3.org/TR/2001/REC-SVG-20010904/DTD/svg10.dtd">
<svg version="1.0" xmlns="http://www.w3.org/2000/svg"
 width="512.000000pt" height="512.000000pt" viewBox="0 0 512.000000 512.000000"
 preserveAspectRatio="xMidYMid meet">

<g transform="translate(0.000000,512.000000) scale(0.100000,-0.100000)"
fill="#000000" stroke="none">
<path d="M770 4576 c-126 -35 -202 -117 -230 -246 -8 -41 -10 -503 -8 -1800
l3 -1745 29 -63 c51 -109 132 -164 273 -183 52 -6 647 -9 1773 -7 1578 3 1699
4 1746 20 110 38 178 108 212 217 16 52 17 178 17 1791 l0 1735 -22 70 c-36
113 -107 179 -225 211 -74 19 -3497 19 -3568 0z m1934 -378 c-9 -14 -23 2 -17
18 4 12 8 13 14 3 4 -7 5 -17 3 -21z m1181 -278 c-3 -5 -13 -6 -21 -3 -12 4
-13 8 -3 14 15 9 32 2 24 -11z m-1700 -70 c-3 -5 -10 -10 -16 -10 -5 0 -9 5
-9 10 0 6 7 10 16 10 8 0 12 -4 9 -10z m-1178 -6 c-3 -3 -12 -4 -19 -1 -8 3
-5 6 6 6 11 1 17 -2 13 -5z m120 0 c-3 -3 -12 -4 -19 -1 -8 3 -5 6 6 6 11 1
17 -2 13 -5z m-70 -66 c-3 -8 -6 -5 -6 6 -1 11 2 17 5 13 3 -3 4 -12 1 -19z
m1013 -26 c3 -2 -3 -8 -13 -14 -11 -5 -25 -24 -33 -42 l-13 -31 -1 27 c0 16
-9 33 -22 42 -12 9 -20 17 -17 19 2 1 13 9 24 17 19 14 19 14 6 -3 -12 -16
-12 -20 2 -35 16 -15 18 -15 34 1 16 16 15 18 -8 44 l-24 28 30 -25 c17 -14
32 -26 35 -28z m1053 -60 l22 -11 -22 0 c-14 -1 -25 -10 -31 -28 l-10 -28 -1
27 c-1 19 -7 28 -23 31 l-23 4 23 8 c15 5 22 16 23 34 l1 26 9 -26 c5 -15 20
-31 32 -37z m-139 -71 c3 -5 -1 -11 -9 -15 -15 -6 -29 7 -18 18 9 9 21 8 27
-3z m-1617 -26 c-8 -9 -14 -10 -19 -2 -9 16 0 27 17 21 11 -5 12 -9 2 -19z
m-587 -189 c0 -11 -19 -15 -25 -6 -3 5 1 10 9 10 9 0 16 -2 16 -4z m3237 -118
c-3 -7 -5 -2 -5 12 0 14 2 19 5 13 2 -7 2 -19 0 -25z m36 -51 c-3 -4 -6 -7 -7
-5 -1 2 -8 12 -16 22 -14 18 -14 18 7 6 12 -8 19 -18 16 -23z m-59 8 c-4 -8
-11 -12 -16 -9 -6 4 -5 10 3 15 19 12 19 11 13 -6z m-634 -18 c34 -17 38 -63
8 -107 -33 -48 -106 -102 -222 -161 l-99 -52 24 -17 c13 -10 50 -33 84 -50
l60 -32 59 36 c68 41 88 44 116 16 27 -27 25 -58 -5 -90 l-24 -25 96 -49 96
-49 -24 -18 c-13 -10 -28 -19 -34 -19 -5 0 -77 19 -160 41 l-150 42 -37 -22
c-65 -37 -110 -21 -68 24 18 19 20 26 9 29 -8 3 -75 22 -150 42 l-135 36 -180
-90 c-196 -98 -211 -102 -450 -118 -117 -7 -150 2 -140 41 6 25 -4 30 -139 64
-22 5 -60 15 -85 22 l-45 12 85 13 c81 13 93 12 247 -16 175 -32 221 -37 133
-14 -30 8 -79 22 -107 30 l-53 15 0 99 0 100 31 0 c26 0 47 -15 119 -86 l88
-86 102 55 103 55 -39 11 c-88 25 -108 24 -149 -3 -64 -44 -105 -28 -66 24 11
16 17 31 12 34 -5 3 -55 17 -111 31 l-103 24 -28 -24 c-40 -33 -68 -40 -86
-22 -14 14 -13 18 6 43 12 15 18 30 14 34 -4 4 -74 26 -155 50 -81 23 -145 46
-143 50 3 5 26 15 52 24 46 16 49 15 267 -34 298 -68 395 -90 435 -101 29 -7
38 -4 65 18 36 30 103 62 130 63 52 0 74 -72 34 -109 -20 -19 -20 -21 -3 -27
12 -5 100 34 274 119 141 70 265 128 276 131 44 9 141 5 165 -7z m661 -39 c-3
-21 -6 -26 -9 -15 -3 17 3 47 11 47 2 0 1 -15 -2 -32z m-2822 -275 c14 -11 14
-12 -1 -13 -12 0 -18 -8 -19 -22 l0 -23 -9 23 c-5 12 -15 22 -22 22 -8 1 -7 5
5 14 9 7 17 19 18 27 0 11 2 11 6 -1 4 -8 13 -20 22 -27z m3238 -55 c-5 -3
-16 -4 -23 -1 -10 4 -10 8 -1 17 8 9 14 10 23 2 8 -8 8 -13 1 -18z m-3364 -64
c-4 -10 -9 -12 -15 -6 -12 12 -1 35 12 27 5 -3 6 -13 3 -21z m1908 -64 c25
-14 26 -71 2 -92 -22 -19 -105 -48 -138 -48 -29 0 -46 27 -35 55 11 30 42 54
96 75 59 23 51 22 75 10z m970 -150 c10 0 19 -4 19 -10 0 -5 -9 -10 -20 -10
-15 0 -20 -7 -21 -27 l-1 -28 -10 28 c-5 15 -16 27 -24 27 -8 0 -14 5 -14 10
0 6 7 10 15 10 8 0 18 12 22 28 l8 27 3 -27 c2 -20 9 -28 23 -28z m-112 -127
c11 -9 12 -12 3 -13 -7 0 -17 -10 -22 -22 -6 -17 -9 -18 -9 -6 -1 9 -9 21 -18
27 -17 9 -17 10 0 16 9 4 17 15 18 24 0 13 2 14 6 1 4 -8 13 -20 22 -27z
m-2318 -155 c42 -12 55 -34 14 -24 -37 9 -75 25 -75 31 0 8 19 6 61 -7z m1298
-34 c2 -2 2 -7 -1 -10 -9 -9 -98 7 -98 18 0 8 89 1 99 -8z m-1289 -19 c17 -9
30 -20 30 -25 0 -14 -12 -12 -34 5 -27 20 -101 19 -133 -2 -21 -14 -25 -14
-21 -3 12 38 105 52 158 25z m-299 -56 c23 -12 29 -43 14 -73 -11 -21 -11 -27
1 -37 21 -17 17 -63 -7 -85 -16 -14 -36 -19 -82 -19 l-62 0 -2 110 c-1 74 2
112 10 118 14 8 104 -1 128 -14z m296 -3 c26 -23 28 -30 32 -111 2 -54 -1 -91
-8 -98 -17 -17 -28 4 -30 61 -1 20 -6 22 -60 22 l-60 0 -3 -42 c-2 -23 -9 -43
-15 -46 -10 -3 -13 20 -13 90 0 60 4 100 13 110 35 44 102 50 144 14z m173
-52 c0 -97 18 -133 66 -134 46 0 59 23 64 116 3 57 9 89 18 92 9 3 12 -19 12
-88 0 -88 -1 -93 -29 -121 -47 -47 -119 -38 -149 18 -13 23 -17 175 -5 186 17
18 23 1 23 -69z m575 56 c0 -10 -12 -16 -32 -18 l-33 -3 0 -84 c0 -92 -5 -115
-26 -115 -11 0 -14 21 -14 100 l0 100 -35 0 c-22 0 -35 5 -35 13 0 24 13 28
95 25 63 -2 80 -6 80 -18z m230 4 c24 -10 37 -55 24 -86 -6 -15 -15 -28 -20
-28 -15 0 -10 -19 17 -61 14 -23 23 -43 20 -46 -11 -11 -36 8 -61 47 -18 29
-32 40 -50 40 -19 0 -25 -5 -25 -22 0 -39 -12 -68 -26 -68 -11 0 -14 24 -14
113 0 63 3 117 8 121 7 7 102 -1 127 -10z m285 6 c13 -7 21 -7 25 0 11 18 27
11 20 -9 -3 -11 -1 -22 4 -26 6 -3 15 -23 21 -45 21 -76 -36 -150 -114 -150
-90 0 -146 82 -112 164 25 60 105 93 156 66z m585 -2 c32 -15 35 -43 3 -33
-53 16 -74 16 -88 0 -19 -23 -3 -45 46 -62 50 -18 67 -34 67 -69 0 -36 -35
-64 -79 -64 -39 0 -84 18 -84 35 0 21 12 25 34 10 27 -20 70 -19 87 1 18 22 2
44 -46 61 -51 18 -65 31 -65 62 0 59 61 88 125 59z m278 0 c40 -21 46 -40 47
-135 0 -76 -3 -93 -15 -93 -11 0 -15 12 -15 45 l0 45 -60 0 -60 0 0 -32 c0
-39 -13 -63 -29 -54 -15 10 -14 155 2 186 22 44 85 63 130 38z m327 -3 c42
-22 60 -53 60 -105 0 -52 -18 -83 -60 -105 -62 -32 -136 -9 -165 51 -21 44
-19 75 8 115 39 57 98 74 157 44z m-982 -107 c-2 -78 -7 -113 -15 -116 -10 -3
-13 24 -13 112 0 98 2 116 15 116 13 0 15 -17 13 -112z m-2253 2 c-17 -19 -17
-21 0 -40 22 -25 12 -27 -13 -2 -18 16 -18 18 2 43 12 15 23 25 25 23 2 -2 -4
-13 -14 -24z m3555 -10 c-4 -3 -10 -12 -13 -20 -4 -12 -6 -11 -6 3 -1 9 -6 17
-11 17 -7 0 -6 5 2 13 9 10 15 11 24 3 6 -6 8 -13 4 -16z m-3510 -12 c0 -6 -6
-5 -15 2 -8 7 -15 14 -15 16 0 2 7 1 15 -2 8 -4 15 -11 15 -16z m-154 -144
c-13 -14 -27 2 -19 22 4 10 8 10 17 1 9 -8 10 -14 2 -23z m652 -255 c15 -1 15
-2 0 -6 -10 -2 -18 -11 -18 -19 0 -11 -4 -10 -18 4 -13 12 -14 18 -5 20 7 2
14 11 14 20 1 15 2 15 6 0 2 -10 12 -19 21 -19z m2512 -181 c0 -16 -3 -19 -11
-11 -6 6 -8 16 -5 22 11 17 16 13 16 -11z m-1565 -8 c3 -5 -3 -10 -15 -10 -12
0 -18 5 -15 10 3 6 10 10 15 10 5 0 12 -4 15 -10z m-102 -66 l22 -7 -23 -8
c-12 -5 -22 -16 -23 -26 0 -14 -2 -13 -9 5 -5 12 -15 22 -22 22 -8 0 -6 5 5
11 9 5 18 18 18 27 1 16 2 16 6 0 2 -9 14 -20 26 -24z m996 -51 c-16 -14 -38
-22 -55 -22 l-29 2 30 4 c37 6 65 29 66 57 0 20 1 20 8 1 6 -14 1 -25 -20 -42z
m92 -21 c-13 -2 -27 0 -32 5 -6 6 3 7 23 4 28 -4 29 -6 9 -9z m-56 -14 c17 16
17 15 -1 -13 -10 -16 -18 -31 -19 -32 0 -1 -6 12 -13 30 -9 27 -9 29 2 15 12
-16 14 -16 31 0z m938 -23 c2 -14 2 -23 -1 -20 -3 3 -15 -3 -26 -12 -21 -18
-21 -18 -3 3 9 11 17 28 17 37 0 25 7 20 13 -8z m-1093 -55 c0 -5 -4 -10 -10
-10 -5 0 -10 5 -10 10 0 6 5 10 10 10 6 0 10 -4 10 -10z m1033 3 c-7 -2 -19
-2 -25 0 -7 3 -2 5 12 5 14 0 19 -2 13 -5z m117 0 c-14 -3 -34 -12 -45 -21
-20 -17 -20 -17 -1 6 12 13 29 21 45 21 l26 -2 -25 -4z m-61 -62 c0 -10 -4 -7
-10 8 -5 14 -13 30 -17 36 -4 6 1 2 11 -8 9 -11 17 -27 16 -36z m-2754 -10 c3
-5 1 -12 -5 -16 -5 -3 -10 1 -10 9 0 18 6 21 15 7z m1155 -281 c0 -5 -4 -10
-10 -10 -5 0 -10 5 -10 10 0 6 5 10 10 10 6 0 10 -4 10 -10z"/>
<path d="M2600 3085 c-18 -22 -4 -65 21 -65 24 0 33 21 25 55 -7 28 -27 33
-46 10z"/>
<path d="M3335 2836 c-18 -28 -10 -56 16 -56 26 0 43 34 29 60 -14 26 -26 25
-45 -4z"/>
<path d="M2935 2700 c-8 -27 3 -60 20 -60 20 0 37 37 30 60 -8 26 -42 26 -50
0z"/>
<path d="M1130 2140 c0 -37 1 -38 33 -34 50 7 57 12 57 34 0 23 -9 28 -57 34
-32 3 -33 2 -33 -34z"/>
<path d="M1130 2040 c0 -37 2 -40 29 -40 16 0 39 9 52 20 l24 20 -24 20 c-13
11 -36 20 -52 20 -27 0 -29 -3 -29 -40z"/>
<path d="M1420 2160 c-11 -11 -20 -31 -20 -45 0 -24 3 -25 60 -25 60 0 60 0
60 29 0 54 -62 79 -100 41z"/>
<path d="M2412 2172 c-7 -5 -12 -24 -10 -45 2 -35 4 -37 38 -37 20 0 41 5 48
12 13 13 16 54 5 61 -19 11 -69 16 -81 9z"/>
<path d="M2704 2168 c-26 -12 -44 -48 -44 -89 0 -39 42 -79 82 -79 41 0 88 48
88 90 0 22 -9 41 -29 61 -30 30 -60 35 -97 17z"/>
<path d="M3567 2162 c-10 -10 -17 -31 -17 -45 0 -26 2 -27 60 -27 57 0 60 1
60 25 0 54 -69 85 -103 47z"/>
<path d="M3885 2168 c-32 -19 -44 -41 -45 -81 0 -48 35 -87 80 -87 42 0 90 47
90 89 0 59 -76 108 -125 79z"/>
</g>
</svg>
